<svg width="739.59" height="592.36" version="1.1" viewBox="0 0 739.59 592.36" xml:space="preserve" xmlns="http://www.w3.org/2000/svg"><defs><linearGradient id="linearGradient68" x1="275.82" x2="275.82" y1="145.89" y2="77.573" gradientTransform="scale(10)" gradientUnits="userSpaceOnUse"><stop offset="0"/><stop stop-color="#4d4d4d" offset="1"/></linearGradient></defs><g transform="matrix(1.3333 0 0 -1.3333 -2.7187 498.62)" fill="#fffffa"><g transform="scale(.1)" fill="#fffffa"><path d="m2792.7-31.451c-42.929 0.3636-85.718 9.5141-125.17 26.4-23.725 10.144-46.271 23.01-67.152 38.161-32.55 23.582-61.006 52.644-84.665 85.097-1.6085 2.2002-3.185 4.4235-4.7511 6.6541-27.834 12.863-54.449 28.624-78.232 48.041-20.475 16.757-38.78 36.431-52.557 59.096-12.152 19.934-20.71 42.129-24.464 65.199-0.9488 5.5957-1.711 11.751-2.4505 17.007-2.9441 20.78-5.851 41.566-8.7807 62.348-49.403-6.4544-98.984-11.539-148.67-15.274-65.699-4.9362-131.58-7.4962-197.46-7.7377-36.286-0.0854-72.571 0.73661-108.83 2.1499-91.034 3.6347-181.89 11.759-272.11 24.504-62.971-31.387-126.9-60.85-191.66-88.355-69.298-29.403-139.56-56.549-210.65-81.295-78.66-27.368-158.35-51.794-238.88-73.021-95.683-25.203-192.56-45.938-290.28-61.504-110.79-17.617-222.68-28.71-334.85-31.497-25.232-0.65056-50.474-0.77864-75.713-0.64648-23.035 0.05881-46.07 0.11764-69.104 0.17644-35.99 134.24-71.975 268.49-107.96 402.73 25.419 16.021 50.934 31.891 76.275 48.035 36.689 23.734 71.859 49.753 105.98 77.026 0.29606 0.23329 0.93672 0.75122 1.3647 1.0935 48.352 38.756 94.597 80.095 139.2 123.09 39.582 38.196 77.815 77.785 114.74 118.56 0.49513 0.55415 1.1885 1.3169 1.7598 1.9512-97.985 78.261-187.25 167.92-261.92 268.81-60.376 81.558-111.07 170.51-148.19 265.03-26.02 66.133-45.384 134.92-57.055 205.04-9.0987 54.597-13.653 109.97-13.237 165.33 0.34456 41.312 3.3857 82.597 8.9479 123.53 9.5482 69.931 26.662 138.8 50.627 205.18 23.505 65.171 53.496 127.96 88.804 187.55 42.778 72.196 93.251 139.73 149.34 202.11 52.888 58.844 110.75 113.15 172.18 162.99 78.633 63.828 163.09 120.35 251.28 170.07 68.615 38.686 139.53 73.248 212.07 103.94 65.329 27.644 131.99 52.123 199.59 73.611 81.467 25.878 164.31 47.396 248 64.748 94.685 19.632 190.47 33.911 286.73 43.084 94.434 8.9793 189.33 13.058 284.19 12.349 120.93-0.9139 241.82-9.611 361.58-26.454 102.18-14.381 203.54-34.659 303.27-61.176 40.299-10.718 80.329-22.451 120.02-35.226 132.9 42.754 269.48 73.879 407.59 94.152 96.844 14.173 194.46 23.082 292.26 26.768 94.799 3.5939 189.78 2.3719 284.46-3.6722 133.68-8.5605 266.77-26.83 397.66-55.39 83.495-18.217 166.09-40.625 247.24-67.41 80.998-26.755 160.58-57.858 238.04-93.601 90.671-41.831 178.46-90.033 261.82-145.04 80.288-52.991 156.46-112.35 226.46-178.39 58.98-55.662 113.54-116.1 161.93-181.2 44.653-60.04 84.021-124.08 116.55-191.48 25.16-52.098 46.194-106.21 62.482-161.73 16.186-55.168 27.668-111.72 34.084-168.86 4.451-39.712 6.5267-79.698 6.0236-119.66-0.5579-42.086-3.9688-84.126-10.001-125.78-7.1624-49.275-18.106-97.989-32.51-145.65-15.04-49.687-33.861-98.215-55.984-145.17-23.154-49.134-49.914-96.551-79.72-141.95-49.892-76.012-108.2-146.37-172.45-210.66-40.98-41.02-84.39-79.593-129.69-115.78 20.204-22.381 40.826-44.384 61.828-66.018 0.1964-0.19481 0.8389-0.85821 1.2068-1.2332 13.331-13.698 26.824-27.238 40.467-40.624 0.206-0.19351 0.8596-0.8375 1.2377-1.2041 2.4064-2.3473 4.8129-4.6946 7.2193-7.042 0.1965-0.19455 0.8629-0.83404 1.2401-1.1997 11.885-11.519 23.895-22.909 36.029-34.166 0.2309-0.21797 0.8819-0.81463 1.2739-1.1779 29.169-27.001 59.055-53.234 89.775-78.459 0.2166-0.1709 0.9299-0.75854 1.3375-1.0897 27.226-22.283 55.102-43.789 83.842-64.087 18.427-13.044 37.28-25.479 56.447-37.406 19.138-12.033 38.269-24.078 57.4-36.122-35.983-134.22-71.965-268.45-107.95-402.67-30.825 0.0055-61.65-0.23522-92.475-0.19824-53.913 0.01167-107.82 2.1412-161.59 5.9551-89.194 6.3867-178.02 17.622-266.11 32.966-93.189 16.232-185.56 37.085-276.81 61.996-110.92 30.297-220.19 66.617-327.33 108.34-76.369 29.755-151.67 62.252-225.73 97.364-20.469 9.7109-40.85 19.608-61.124 29.719-98.767-13.955-198.31-22.373-298.01-25.416-43.431-1.3508-86.899-1.6528-130.34-0.66683-101.76 2.1033-203.42 9.7555-304.33 23.159-0.01-19.85 0.016-39.7-0.092-59.549-1.2971-29.573-10.524-58.628-25.791-83.936-9.979-16.611-22.328-31.739-36.206-45.241-20.47-19.909-44.084-36.381-69.03-50.179-8.6509-4.7792-17.488-9.2178-26.456-13.37-26.267-37.585-58.906-70.858-96.716-96.883-37.86-26.085-80.961-44.729-126.13-53.542-21.229-4.1807-42.881-6.1598-64.514-6.0267z" fill="#fffffa"/></g></g><g transform="matrix(1.3333 0 0 -1.3333 0 592.36)"><g transform="scale(.1)"><path d="m1921.2 3455.8c-84.95-0.62-152.86-5.08-238.15-14.85-624.32-71.49-1132.5-375.89-1282.9-782.06-29.762-80.38-42.75-151.66-42.82-235.02-0.031-50.94 1.89-71.68 10.39-111.95 27.887-132.2 95.668-267.84 194.6-391.74 45.172-56.56 142.7-153.08 198.55-196.36 60.699-47.05 133.63-94.36 191.89-124.25 8.461-4.34 14.79-7.84 21.571-11.51-9.031-12.36-21.039-28.46-34.871-46.67-28.871-38.05-64.168-83.53-89.09-114.38-67.621-83.69-115.09-136.77-194.44-217.38-19.597-19.91-36.929-38-49.277-51.33-6.172-6.66-11.062-12.08-14.652-16.3-1.789-2.12-3.168-3.75-4.821-6.08-0.82-1.17-1.679-1.91-3.418-6.05-0.878-2.07-3.269-4.58-1.89-14.3 0.68-4.86 3.851-12.41 9.851-17.15 6.008-4.74 12.539-5.72 16.5-5.72 6.661 0 6.789 0.54 10.52 1.1 3.719 0.57 8.41 1.34 13.988 2.3 11.153 1.92 25.801 4.56 42.02 7.59 32.441 6.06 71.121 13.6 100.17 19.67 265.66 55.52 517.4 145.44 724.96 259.32l46.4 25.45 50.74-7.35c128.98-18.67 320.94-30.21 446.26-26.78 123.02 3.36 261.4 17.54 365.36 37.59l23.25 4.48c12.42 2.39 21.49 13.36 21.49 26.01 0 9.35-4.95 18.03-12.99 22.8l-47.26 27.99c-110.15 65.26-209.63 142.27-298.48 230.99-100.32 100.19-165.85 189.71-220.78 301.09-64.33 130.46-92.47 249.33-92.52 390.2-0.02 72.08 3.19 105.04 16.79 172.69 27.54 136.96 102.17 290.51 203.48 416.65 96.69 120.39 234.31 237.45 390.41 331.4 14.01 8.44 26.32 16.09 35.17 21.83 4.43 2.87 7.92 5.2 10.8 7.28 1.44 1.04 2.5 1.74 4.69 3.76 1.09 1.01 2.4 0.66 6.1 8.02 0.93 1.84 2.14 4.39 2.67 8.8 0.27 2.21-0.25 7.98-0.25 7.98 0 0.01-3.71 9.47-3.72 9.48 0 0-3.23 4.11-3.24 4.12 0 0-2.39 2.27-3.61 3.15-2.44 1.76-4.79 2.83-6.79 3.53-3.98 1.39-6.64 1.48-8.61 1.49 6.5-0.05 1.22-0.03-1.13 0.31s-5.74 0.86-9.8 1.51c-8.12 1.29-18.95 3.09-30.42 5.07-128.01 22.04-222.5 30.44-370.74 33-33.43 0.58-63.63 0.79-91.95 0.58zm1670-0.1c-89.29-0.27-188.55-3.25-241.05-8.51-66.48-6.65-180.95-22.16-215.79-30.06l-19.17-4.33c-12.04-2.72-20.66-13.51-20.66-25.84 0-9.35 4.95-18.03 12.99-22.8l42.89-25.41c223.91-132.61 401.32-308.1 503.78-496.41 79.67-146.43 116.25-295.1 111.43-451.27-2.33-75.62-8.53-120.33-26.09-188.89-16.99-66.35-32.7-107.7-68.86-180.97-99.67-201.92-275.73-383.43-511.55-525.18-14.21-8.54-27.02-16.39-36.38-22.26-4.67-2.94-8.45-5.34-11.32-7.25-1.43-0.96-2.58-1.73-3.91-2.71-0.67-0.49-1.27-0.9-2.73-2.21-0.72-0.66-1.6-1.24-3.69-4.06-0.52-0.71-1.13-1.58-1.84-2.86-0.72-1.28-2.34-5.59-2.35-5.59 0-0.01-0.73-11.42-0.73-11.43 0 0 2.53-7.88 2.54-7.88l5.12-7c0.01-0.01 3.7-3.06 4.82-3.74s1.89-1.07 2.52-1.36c1.26-0.59 1.95-0.81 2.51-1.01 1.11-0.39 1.64-0.53 2.11-0.66 0.94-0.26 1.5-0.37 2.12-0.51 1.24-0.28 2.53-0.55 4.13-0.87 3.21-0.63 7.51-1.42 12.77-2.37 10.52-1.9 24.77-4.37 40.35-7 75.18-12.68 174.75-23.69 263.71-29.2 138.33-8.56 366.08 3.1 523.84 26.56l36.61 5.45 42.63-23.13c238.37-129.44 505.83-220.75 814.48-278.41 18.96-3.54 36.86-6.78 50.49-9.18 6.82-1.2 12.57-2.19 16.94-2.9 4.36-0.72 4.06-1.11 10.68-1.44 4.68-0.23 14.14 1.16 20.97 8.56 6.83 7.39 7.34 15.96 7 20.24-0.66 8.56-2.54 9.77-3.51 11.56-1.95 3.56-3.24 5.08-4.85 7.16-3.23 4.16-7.34 8.94-12.64 14.84-10.6 11.8-25.6 27.62-42.83 45.09-101.72 103.05-193.21 210.5-300.59 353.11l-25.53 33.91c232.67 117.19 430.63 311.63 537.99 529.76 51.91 105.48 75.43 191.44 78.33 289.06 8.13 274.47-160.68 542.92-456.04 736.92-67.95 44.63-102.95 64.52-182.84 103.81-238.23 117.19-514.61 186.17-822.13 205.86-33.58 2.15-83.09 2.97-136.67 2.81zm-2603.2-1848.3c-0.321-0.5-0.742-1.14-1.442-2.17 0.578 1.49 1.129 1.92 1.442 2.17" fill="#fff"/><g><path d="m3579.4 3668c1008.4-0.01 1825.8-561.13 1825.8-1253.3-1.39-328.57-190.7-643.62-527.17-877.31l1.09-1.29c-0.52-0.36-1.02-0.73-1.54-1.09 149.47-180.99 325.73-342.49 469.98-432.91l-67.09-250.28c-380.35-1.832-849 103.35-1313 340.05-127.4-19.63-257.49-29.82-388.05-30.39-1008.3 0-1825.7 561.08-1825.8 1253.2-0.02 692.16 817.41 1253.3 1825.8 1253.3zm0-236.6c-875.94 0-1586-455.19-1586-1016.7s710.08-1016.7 1586-1016.7c158.2 6.5 286.63 13.42 426.16 37.27 309.56-179.73 642.23-270.24 940.35-317.88-170.84 162.15-282.41 302.38-413.25 480.13 346.31 159.31 624.53 510.74 632.75 817.17 0.01 561.5-710.08 1016.7-1586 1016.7"/><path d="m1967.5 3668c-1008.4-0.01-1825.8-561.13-1825.8-1253.3 1.391-328.57 190.71-643.62 527.17-877.31l-1.089-1.29c0.519-0.36 1.019-0.73 1.55-1.09-149.48-180.99-325.74-342.49-469.99-432.91l67.09-250.28c380.35-1.832 849 103.35 1313 340.05 127.4-19.63 257.49-29.82 388.05-30.39 1008.3 0 1825.7 561.08 1825.8 1253.2 0.02 692.16-817.41 1253.3-1825.8 1253.3zm0-236.6c875.94 0 1586-455.19 1586-1016.7s-710.08-1016.7-1586-1016.7c-158.2 6.5-286.63 13.42-426.16 37.27-309.56-179.73-642.23-270.24-940.35-317.88 170.84 162.15 282.41 302.38 413.25 480.13-346.31 159.31-624.53 510.74-632.75 817.17-0.011 561.5 710.08 1016.7 1586 1016.7"/><path d="m2773.4 3436.8c-163.11 0-326.17-42.13-472.21-126.44l116.9-202.53c220.05 127.05 490.63 127.05 710.67 0l116.9 202.53c-146.03 84.31-309.15 126.44-472.26 126.44zm-355.31-1714-116.9-202.48c146.04-84.31 309.1-126.5 472.21-126.5s326.23 42.19 472.26 126.5l-116.9 202.48c-220.04-127.05-490.62-127.05-710.67 0"/></g><g><path d="m2772 3213.2c-439.52 0.01-795.82-356.28-795.84-795.8-0.01-439.53 356.31-795.85 795.84-795.84 439.52 0.02 795.81 356.32 795.8 795.84-0.02 439.5-356.3 795.78-795.8 795.8" fill="#fc0"/><path d="m2774 2987c-57.05 0-112.2-13.46-165.48-40.37s-96.59-63.21-129.96-108.96c-45.21-61.9-67.86-141.84-67.86-239.8h278.55c0 73.2 26.37 109.8 79.12 109.8 19.37 0 35.81-6.71 49.27-20.16 13.45-13.46 20.16-29.9 20.16-49.27 0-33.37-20.75-59.2-62.19-77.5l-54.9-24.22c-39.82-17.76-67.27-42.77-82.34-75.06-15.07-31.76-22.61-81.27-22.61-148.55v-50.88c108.68 39.8 207.48 35.01 299.54 0 0 38.75 3.48 64.05 10.47 75.89 7 11.84 26.67 25.83 58.96 41.98 99.03 49.51 148.55 135.38 148.55 257.55 0 99.04-34.74 181.92-104.17 248.66-68.89 67.28-153.93 100.89-255.11 100.89zm-3.23-755.28c-52.75 0-97.67-18.84-134.8-56.51-37.14-37.14-55.68-82.6-55.68-136.42 0-55.43 17.76-101.18 53.28-137.24 36.06-35.52 81.76-53.28 137.2-53.28 53.28 0 98.78 18.3 136.46 54.89 37.67 37.14 56.51 82.06 56.51 134.8 0 52.75-19.13 98.25-57.34 136.46-37.68 38.22-82.89 57.3-135.63 57.3"/><path d="m2437.7 1464.8v-131.8l16.46-16.84c17.27-17.01 7.38-48.82-16.46-52.96v-51.99l16.46-16.84c17.34-17 7.43-48.89-16.46-53v-51.95l16.46-16.84c17.02-16.73 7.75-48.02-15.63-52.82 2.03-15.55 9.29-30.93 22.92-46.129 16.14-17.981 40.48-35.071 71.09-49.5 9.03-4.262 18.73-8.172 28.79-11.95 21.79-38.082 50.2-69.89 83.22-93.191 80.72-56.59 180.17-56.59 260.88 0 33.12 23.289 61.61 55.129 83.46 93.281 9.95 3.75 19.57 7.649 28.51 11.86 30.61 14.429 54.95 31.519 71.09 49.5 15.27 17.031 22.96 34.199 23.75 51.669v57.8c-23.89 1.77-33.8 32.69-16.47 51.39l16.47 18.46v51.94c-23.89 1.77-33.8 32.69-16.47 51.39l16.47 18.46v51.99c-23.84 1.8-33.73 32.64-16.47 51.34l16.47 18.5v68.23c-19.69-22.57-660.79-17.25-674.54 0" fill="url(#linearGradient68)"/></g><path d="m3042.8 1420.6c-192.82-95.21-380.51-63.13-533.2-28.51l-9.27-29.71c191.24-41.9 395.02-45.45 542.47 58.22zm0-118.1c-192.82-95.21-380.51-63.13-533.2-28.51l-9.27-29.71c191.24-41.9 395.02-45.45 542.47 58.22zm0-118.1c-192.82-95.21-380.51-63.12-533.2-28.51l-9.27-29.71c191.24-41.89 395.02-45.45 542.47 58.22zm0-118.1c-192.82-95.211-380.51-63.12-533.2-28.51l-9.27-29.7c191.24-41.9 395.02-45.458 542.47 58.21" fill="#fff" fill-rule="evenodd"/><g fill="#1a1a1a"><path d="m5183 899.88-19.6 5.371-2.45-8.941 27.03-7.411 5.54 20.211-7.44 2.032-3.08-11.262"/><path d="m5195.3 930.87 4.19 0.301 2.61 9.527-30.05-3.578-2.51-9.18 23.9-18.832 2.52 9.18-3.44 2.441zm-7-0.449-1.54-5.633-7.13 5.031 8.67 0.602"/><path d="m5197.6 953.23-19.6 5.372-2.45-8.942 27.04-7.41 5.54 20.211-7.44 2.039-3.09-11.27"/><path d="m5210 984.22 4.19 0.312 2.61 9.52-30.05-3.582-2.52-9.18 23.91-18.828 2.51 9.18-3.43 2.437zm-7.01-0.438-1.54-5.633-7.13 5.024 8.67 0.609"/><path d="m5212.2 1006.6-19.6 5.38-2.45-8.95 27.04-7.408 5.54 20.208-7.44 2.04-3.09-11.27"/><path d="m5224.6 1037.6 4.19 0.31 2.61 9.52-30.05-3.58-2.52-9.18 23.91-18.83 2.52 9.18-3.44 2.44zm-7-0.44-1.55-5.63-7.12 5.02 8.67 0.61"/><path d="m5239 1075.2-27.03 7.41-2.22-8.1 13.88-3.8-16.81-6.89-2.05-7.48 27.03-7.41 2.23 8.14-13.8 3.78 16.72 6.87 2.05 7.48"/><path d="m5213 1086.5 27.04-7.41 3.22 11.73c2.5 9.14-1.2 16.5-9.42 18.75s-15.08-2.08-17.53-11zm9.39 7.05 0.81 2.93c0.95 3.47 4.2 5.03 8.21 3.93 3.98-1.09 5.95-3.87 5.06-7.11l-0.92-3.36-13.16 3.61"/><path d="m5218.5 905.02 6.29-1.719c0.18-1.461 0.17-2.871-0.09-3.801-0.96-3.512-4.37-5.352-8.11-4.328-3.67 1.008-5.67 4.289-4.72 7.769 0.61 2.239 2.45 4.547 4.68 5.887l-4.74 6.731c-3.34-2.188-6.22-6.34-7.37-10.539-2.42-8.84 1.64-16.84 9.63-19.02 8.03-2.199 15.58 2.359 17.9 10.852 1.06 3.859 0.96 9.226-0.22 12.789l-11.15 3.05-2.1-7.671"/><path d="m5240 927.66 2.76 10.102-10.25-2.91c-0.93 3.238-3.45 5.546-7.39 6.628-6.17 1.692-10.83-1.55-12.84-8.878l-3.58-13.071 27.03-7.41 2.46 8.938-7.03 1.929 0.93 3.352zm-15.62-2.82-6.45 1.769 1.13 4.129c0.53 1.934 2 2.731 4.01 2.184 2.08-0.57 2.97-2.012 2.44-3.942l-1.13-4.14"/><path d="m5244.7 959.53 4.19 0.297 2.61 9.531-30.05-3.578-2.51-9.179 23.91-18.832 2.51 9.179-3.44 2.43zm-7-0.453-1.54-5.629-7.13 5.02 8.67 0.609"/><path d="m5224.9 978.32 27.04-7.41 2.45 8.942-7.02 1.929 1.03 3.739c1.92 7.019-0.75 12.109-7.31 13.902-6.17 1.698-10.79-1.391-12.71-8.41zm9.24 7.078 0.9 3.293c0.53 1.93 1.99 2.731 4 2.18 2.08-0.57 2.97-2.019 2.44-3.949l-0.9-3.281-6.44 1.757"/><path d="m5266.4 1023.6-27.04 7.41-2.45-8.95 10.49-2.87-2.29-8.38-10.49 2.88-2.46-8.95 27.04-7.409 2.45 8.949-9.76 2.67 2.3 8.38 9.76-2.68 2.45 8.95"/><path d="m5269.9 1036.4-27.04 7.41-2.45-8.95 27.04-7.41 2.45 8.95"/><path d="m5247.3 1061.1c-2.33-8.49 1.76-16.24 9.71-18.42 8.07-2.21 15.61 2.19 17.89 10.48 1.14 4.17 0.28 9.34-2.18 13.24l-6.93-3.65c1.41-2.3 1.94-5.05 1.41-6.98-0.89-3.24-4.16-4.88-7.79-3.88-3.59 0.98-5.53 4.04-4.64 7.28 0.57 2.09 2.67 4.13 5.31 5.14l-4.72 6.85c-3.77-1.95-6.93-5.94-8.06-10.06"/><path d="m5254 1086.1c-1.92-7.02 0.23-12.5 5.62-13.98 9.5-2.6 11.02 12.04 14.53 11.07 0.97-0.26 1.16-1.23 0.8-2.54-0.75-2.74-3.95-7-7.03-9.15l5.8-5.15c3.72 2.83 6.74 7.65 8.03 12.35 1.67 6.1 0.46 12.11-5.56 13.76-9.8 2.69-11.51-11.9-14.91-10.97-0.81 0.22-0.94 0.96-0.66 1.97 0.64 2.35 3.45 6.1 5.71 8.43l-5.9 5.1c-2.76-2.52-5.25-6.61-6.43-10.89"/><path d="m5258.1 949.72c-1.16-4.239-0.66-8.61 0.94-13.199l7.35 1.55c-1.4 3.211-2.02 6.239-1.46 8.282 0.32 1.16 0.99 1.636 1.91 1.386 0.93-0.258 2.04-1.508 2.9-2.91l7.19-12.047 5.59-1.531 5.79 21.09-6.87 1.879-2.66-9.707-2.97 5.207c-2.19 3.832-4.58 6.89-7.71 7.75-4.39 1.203-8.48-2.199-10-7.75"/><path d="m5265 974.53c-2.2-8.031 1.49-13.761 10.36-16.191 8.88-2.442 15.02 0.609 17.21 8.629 2.18 7.953-1.54 13.73-10.41 16.172-8.87 2.429-14.99-0.661-17.16-8.61zm6.47-1.781c0.66 2.398 2.69 2.711 8.17 1.211s7.11-2.82 6.46-5.223c-0.67-2.429-2.74-2.726-8.22-1.226s-7.07 2.808-6.41 5.238"/><path d="m5299.8 994.51-27.04 7.408-3.74-13.65 7.06-1.942 1.29 4.711 19.98-5.48 2.45 8.953"/><path d="m5286 1026.8-5.97 1.64-6.12-22.33 10.64-2.92 2.16 7.87-3.79 1.03 1.27 4.63 17.74-14.43 2.59 9.44-18.52 15.07"/></g></g></g></svg>
