<svg id="Capa_1" enable-background="new 0 0 512 512" height="512" viewBox="0 0 512 512" width="512" xmlns="http://www.w3.org/2000/svg"><g><g><path d="m241 241h-150v-45c0-41.353 33.647-75 75-75s75 33.647 75 75z"/></g><g><path d="m166 121c-24.814 0-45-20.186-45-45s20.186-45 45-45 45 20.186 45 45-20.186 45-45 45z"/></g><g><path d="m421 241h-150v-45c0-41.353 33.647-75 75-75s75 33.647 75 75z"/></g><g><path d="m346 121c-24.814 0-45-20.186-45-45s20.186-45 45-45 45 20.186 45 45-20.186 45-45 45z"/></g><g><path d="m512 481h-150v-45c0-41.353 33.647-75 75-75s75 33.647 75 75z"/></g><g><path d="m437 361c-24.814 0-45-20.186-45-45s20.186-45 45-45 45 20.186 45 45-20.186 45-45 45z"/></g><g><path d="m331 481h-150v-45c0-41.353 33.647-75 75-75s75 33.647 75 75z"/></g><g><path d="m256 361c-24.814 0-45-20.186-45-45s20.186-45 45-45 45 20.186 45 45-20.186 45-45 45z"/></g><g><path d="m150 481h-150v-45c0-41.353 33.647-75 75-75s75 33.647 75 75z"/></g><g><path d="m75 361c-24.814 0-45-20.186-45-45s20.186-45 45-45 45 20.186 45 45-20.186 45-45 45z"/></g></g></svg>