<svg width="717.78" height="401.53" version="1.1" viewBox="0 0 717.78 401.53" xml:space="preserve" xmlns="http://www.w3.org/2000/svg"><defs><linearGradient id="linearGradient68" x1="275.82" x2="275.82" y1="145.89" y2="77.573" gradientTransform="scale(10)" gradientUnits="userSpaceOnUse"><stop offset="0"/><stop stop-color="#4d4d4d" offset="1"/></linearGradient></defs><g transform="matrix(1.3333 0 0 -1.3333 -13.619 403.33)" fill="#fffffa"><g transform="scale(.1)" fill="#fffffa"><path d="m2793.1 13.545c-40.235 0.30778-80.306 9.6504-116.72 26.712-31.49 14.667-60.258 34.968-85.133 59.177-19.015 18.45-35.831 39.131-50.283 61.328-21.608 9.1536-42.448 20.216-61.816 33.489-17.443 12.014-33.695 25.956-47.194 42.331-12.669 15.414-22.741 33.138-28.331 52.348-2.3256 7.8393-3.8062 15.904-4.7997 24.013-2.35 16.707-4.7001 33.414-7.05 50.122 2.0951 0.47526 4.1902 0.95052 6.2852 1.4258v65.141c-134.79-20.76-271.17-31.001-407.54-31.114-46.825 0.1213-93.645 1.52-140.4 4.086-80.398 4.4339-160.6 12.444-240.27 24.131-122.8-61.801-249.29-116.3-378.67-162.77-120.33-43.208-243.17-79.474-367.85-107.81-104.95-23.832-211.22-42.051-318.23-53.565-86.301-9.2875-173.1-14.16-259.91-13.733-14.802 0.03631-29.604 0.07593-44.407 0.1133-30.15 112.46-60.298 224.93-90.445 337.39 15.288 9.6174 30.611 19.179 45.852 28.873 0.15984 0.10886 0.95444 0.61337 1.3594 0.875 16.036 10.321 31.786 21.084 47.295 32.182 0.26394 0.18396 0.97498 0.70057 1.4104 1.0121 15.09 10.836 29.954 21.984 44.623 33.382 0.2127 0.17168 0.94535 0.7392 1.358 1.0631 34.498 26.881 67.914 55.134 100.46 84.343 0.38709 0.35481 1.0405 0.93737 1.5296 1.3795 55.095 49.568 107.68 101.9 157.98 156.32 17.262 18.704 34.252 37.659 50.951 56.867-98.725 74.268-189.4 159.75-266.19 256.67-57.932 73.103-107.87 152.74-146.49 237.7-25.539 56.141-46.139 114.56-60.921 174.45-16.669 67.477-25.958 136.8-27.264 206.3-0.63375 35.527 0.93805 71.084 4.4234 106.44 6.9531 70.104 21.921 139.38 44.145 206.22 22.079 66.454 51.235 130.5 86.155 191.18 57.065 99.238 129.25 189.38 210.8 269.54 48.79 47.961 100.98 92.428 155.66 133.53 51.635 38.801 105.51 74.601 161.07 107.53 73.949 43.836 150.86 82.613 229.8 116.64 71.868 30.995 145.42 58.052 220.12 81.394 58.356 18.237 117.42 34.191 176.99 47.962 138.15 31.927 278.98 52.073 420.46 61.163 107.23 6.8707 214.86 7.4419 322.15 1.7458 129.89-6.9173 259.32-23.14 386.78-49.148 92.278-18.838 183.52-42.822 273-72.223 134.03 44.031 271.96 75.923 411.49 96.559 65.899 9.7121 132.16 16.948 198.6 21.708 93.542 6.6957 187.43 8.5507 281.16 5.6612 85.341-2.6323 170.56-9.2513 255.27-19.962 86.779-10.98 173.02-26.268 258.23-46.048 111.82-25.964 221.89-59.65 328.75-101.62 123.34-48.477 242.5-108 353.98-179.77 75.507-48.65 147.46-102.93 214.09-163.21 67.39-60.945 129.33-128.08 183.22-201.28 45.724-62.091 85.591-128.58 117.71-198.72 29.534-64.428 52.452-131.94 67.561-201.2 14.293-65.415 21.616-132.36 21.626-199.32-0.039-31.165-1.7677-62.323-5.0012-93.318-6.503-62.204-19.344-123.72-37.934-183.43-22.64-72.78-53.764-142.84-91.656-208.94-60.126-104.95-137.04-199.81-224.19-283.48-44.871-43.101-92.502-83.3-142.22-120.7 34.101-39.262 69.436-77.45 105.89-114.54 0.2039-0.21228 0.8434-0.85409 1.2146-1.2313 41.735-42.346 84.954-83.247 129.86-122.22 0.2863-0.25348 0.9078-0.78587 1.3225-1.1461 4.8831-4.233 9.7921-8.436 14.713-12.625 0.2685-0.22078 0.9171-0.77505 1.3312-1.1236 20.093-17.041 40.542-33.664 61.384-49.781 0.2864-0.21567 0.9517-0.73209 1.3833-1.063 31.937-24.639 64.83-48.073 98.996-69.53 12.242-7.679 24.466-15.386 36.697-23.083-30.145-112.45-60.289-224.89-90.432-337.34-32.584-0.0589-65.174-0.41379-97.754 0.25674-52.975 1.064-105.91 3.9936-158.69 8.6538-96.656 8.5354-192.79 22.704-287.95 41.604-120.72 24.013-239.89 55.643-356.87 93.885-104.07 34.034-206.41 73.315-306.63 117.39-54.373 23.918-108.12 49.25-161.18 75.957-104.54-15.331-210-24.348-315.62-27.236-33.116-0.90048-66.251-1.2438-99.377-0.74683-95.043 1.2869-190.03 7.4599-284.41 18.724-28.663 3.4239-57.272 7.3031-85.806 11.673-0.011-36.419 0.033-72.839-0.042-109.26-0.9396-22.537-8.1743-44.632-19.953-63.81-12.609-20.754-29.919-38.315-49.081-53.081-19.608-15.077-41.202-27.44-63.652-37.757-3.2793-1.4922-6.5763-2.9458-9.8947-4.349-24.186-37.164-55.138-70.116-91.665-95.367-32.024-22.15-68.361-38.221-106.52-46.143-19.277-4.0303-38.983-5.9727-58.675-5.8372z" fill="#fffffa"/></g></g><g transform="matrix(1.3333 0 0 -1.3333 -10.9 497.07)"><g transform="scale(.1)"><path d="m1921.2 3455.8c-84.95-0.62-152.86-5.08-238.15-14.85-624.32-71.49-1132.5-375.89-1282.9-782.06-29.762-80.38-42.75-151.66-42.82-235.02-0.031-50.94 1.89-71.68 10.39-111.95 27.887-132.2 95.668-267.84 194.6-391.74 45.172-56.56 142.7-153.08 198.55-196.36 60.699-47.05 133.63-94.36 191.89-124.25 8.461-4.34 14.79-7.84 21.571-11.51-9.031-12.36-21.039-28.46-34.871-46.67-28.871-38.05-64.168-83.53-89.09-114.38-67.621-83.69-115.09-136.77-194.44-217.38-19.597-19.91-36.929-38-49.277-51.33-6.172-6.66-11.062-12.08-14.652-16.3-1.789-2.12-3.168-3.75-4.821-6.08-0.82-1.17-1.679-1.91-3.418-6.05-0.878-2.07-3.269-4.58-1.89-14.3 0.68-4.86 3.851-12.41 9.851-17.15 6.008-4.74 12.539-5.72 16.5-5.72 6.661 0 6.789 0.54 10.52 1.1 3.719 0.57 8.41 1.34 13.988 2.3 11.153 1.92 25.801 4.56 42.02 7.59 32.441 6.06 71.121 13.6 100.17 19.67 265.66 55.52 517.4 145.44 724.96 259.32l46.4 25.45 50.74-7.35c128.98-18.67 320.94-30.21 446.26-26.78 123.02 3.36 261.4 17.54 365.36 37.59l23.25 4.48c12.42 2.39 21.49 13.36 21.49 26.01 0 9.35-4.95 18.03-12.99 22.8l-47.26 27.99c-110.15 65.26-209.63 142.27-298.48 230.99-100.32 100.19-165.85 189.71-220.78 301.09-64.33 130.46-92.47 249.33-92.52 390.2-0.02 72.08 3.19 105.04 16.79 172.69 27.54 136.96 102.17 290.51 203.48 416.65 96.69 120.39 234.31 237.45 390.41 331.4 14.01 8.44 26.32 16.09 35.17 21.83 4.43 2.87 7.92 5.2 10.8 7.28 1.44 1.04 2.5 1.74 4.69 3.76 1.09 1.01 2.4 0.66 6.1 8.02 0.93 1.84 2.14 4.39 2.67 8.8 0.27 2.21-0.25 7.98-0.25 7.98 0 0.01-3.71 9.47-3.72 9.48 0 0-3.23 4.11-3.24 4.12 0 0-2.39 2.27-3.61 3.15-2.44 1.76-4.79 2.83-6.79 3.53-3.98 1.39-6.64 1.48-8.61 1.49 6.5-0.05 1.22-0.03-1.13 0.31s-5.74 0.86-9.8 1.51c-8.12 1.29-18.95 3.09-30.42 5.07-128.01 22.04-222.5 30.44-370.74 33-33.43 0.58-63.63 0.79-91.95 0.58zm1670-0.1c-89.29-0.27-188.55-3.25-241.05-8.51-66.48-6.65-180.95-22.16-215.79-30.06l-19.17-4.33c-12.04-2.72-20.66-13.51-20.66-25.84 0-9.35 4.95-18.03 12.99-22.8l42.89-25.41c223.91-132.61 401.32-308.1 503.78-496.41 79.67-146.43 116.25-295.1 111.43-451.27-2.33-75.62-8.53-120.33-26.09-188.89-16.99-66.35-32.7-107.7-68.86-180.97-99.67-201.92-275.73-383.43-511.55-525.18-14.21-8.54-27.02-16.39-36.38-22.26-4.67-2.94-8.45-5.34-11.32-7.25-1.43-0.96-2.58-1.73-3.91-2.71-0.67-0.49-1.27-0.9-2.73-2.21-0.72-0.66-1.6-1.24-3.69-4.06-0.52-0.71-1.13-1.58-1.84-2.86-0.72-1.28-2.34-5.59-2.35-5.59 0-0.01-0.73-11.42-0.73-11.43 0 0 2.53-7.88 2.54-7.88l5.12-7c0.01-0.01 3.7-3.06 4.82-3.74s1.89-1.07 2.52-1.36c1.26-0.59 1.95-0.81 2.51-1.01 1.11-0.39 1.64-0.53 2.11-0.66 0.94-0.26 1.5-0.37 2.12-0.51 1.24-0.28 2.53-0.55 4.13-0.87 3.21-0.63 7.51-1.42 12.77-2.37 10.52-1.9 24.77-4.37 40.35-7 75.18-12.68 174.75-23.69 263.71-29.2 138.33-8.56 366.08 3.1 523.84 26.56l36.61 5.45 42.63-23.13c238.37-129.44 505.83-220.75 814.48-278.41 18.96-3.54 36.86-6.78 50.49-9.18 6.82-1.2 12.57-2.19 16.94-2.9 4.36-0.72 4.06-1.11 10.68-1.44 4.68-0.23 14.14 1.16 20.97 8.56 6.83 7.39 7.34 15.96 7 20.24-0.66 8.56-2.54 9.77-3.51 11.56-1.95 3.56-3.24 5.08-4.85 7.16-3.23 4.16-7.34 8.94-12.64 14.84-10.6 11.8-25.6 27.62-42.83 45.09-101.72 103.05-193.21 210.5-300.59 353.11l-25.53 33.91c232.67 117.19 430.63 311.63 537.99 529.76 51.91 105.48 75.43 191.44 78.33 289.06 8.13 274.47-160.68 542.92-456.04 736.92-67.95 44.63-102.95 64.52-182.84 103.81-238.23 117.19-514.61 186.17-822.13 205.86-33.58 2.15-83.09 2.97-136.67 2.81zm-2603.2-1848.3c-0.321-0.5-0.742-1.14-1.442-2.17 0.578 1.49 1.129 1.92 1.442 2.17" fill="#fff"/><g><path d="m3579.4 3668c1008.4-0.01 1825.8-561.13 1825.8-1253.3-1.39-328.57-190.7-643.62-527.17-877.31l1.09-1.29c-0.52-0.36-1.02-0.73-1.54-1.09 149.47-180.99 325.73-342.49 469.98-432.91l-67.09-250.28c-380.35-1.832-849 103.35-1313 340.05-127.4-19.63-257.49-29.82-388.05-30.39-1008.3 0-1825.7 561.08-1825.8 1253.2-0.02 692.16 817.41 1253.3 1825.8 1253.3zm0-236.6c-875.94 0-1586-455.19-1586-1016.7s710.08-1016.7 1586-1016.7c158.2 6.5 286.63 13.42 426.16 37.27 309.56-179.73 642.23-270.24 940.35-317.88-170.84 162.15-282.41 302.38-413.25 480.13 346.31 159.31 624.53 510.74 632.75 817.17 0.01 561.5-710.08 1016.7-1586 1016.7"/><path d="m1967.5 3668c-1008.4-0.01-1825.8-561.13-1825.8-1253.3 1.391-328.57 190.71-643.62 527.17-877.31l-1.089-1.29c0.519-0.36 1.019-0.73 1.55-1.09-149.48-180.99-325.74-342.49-469.99-432.91l67.09-250.28c380.35-1.832 849 103.35 1313 340.05 127.4-19.63 257.49-29.82 388.05-30.39 1008.3 0 1825.7 561.08 1825.8 1253.2 0.02 692.16-817.41 1253.3-1825.8 1253.3zm0-236.6c875.94 0 1586-455.19 1586-1016.7s-710.08-1016.7-1586-1016.7c-158.2 6.5-286.63 13.42-426.16 37.27-309.56-179.73-642.23-270.24-940.35-317.88 170.84 162.15 282.41 302.38 413.25 480.13-346.31 159.31-624.53 510.74-632.75 817.17-0.011 561.5 710.08 1016.7 1586 1016.7"/><path d="m2773.4 3436.8c-163.11 0-326.17-42.13-472.21-126.44l116.9-202.53c220.05 127.05 490.63 127.05 710.67 0l116.9 202.53c-146.03 84.31-309.15 126.44-472.26 126.44zm-355.31-1714-116.9-202.48c146.04-84.31 309.1-126.5 472.21-126.5s326.23 42.19 472.26 126.5l-116.9 202.48c-220.04-127.05-490.62-127.05-710.67 0"/></g><g><path d="m2772 3213.2c-439.52 0.01-795.82-356.28-795.84-795.8-0.01-439.53 356.31-795.85 795.84-795.84 439.52 0.02 795.81 356.32 795.8 795.84-0.02 439.5-356.3 795.78-795.8 795.8" fill="#fc0"/><path d="m2774 2987c-57.05 0-112.2-13.46-165.48-40.37s-96.59-63.21-129.96-108.96c-45.21-61.9-67.86-141.84-67.86-239.8h278.55c0 73.2 26.37 109.8 79.12 109.8 19.37 0 35.81-6.71 49.27-20.16 13.45-13.46 20.16-29.9 20.16-49.27 0-33.37-20.75-59.2-62.19-77.5l-54.9-24.22c-39.82-17.76-67.27-42.77-82.34-75.06-15.07-31.76-22.61-81.27-22.61-148.55v-50.88c108.68 39.8 207.48 35.01 299.54 0 0 38.75 3.48 64.05 10.47 75.89 7 11.84 26.67 25.83 58.96 41.98 99.03 49.51 148.55 135.38 148.55 257.55 0 99.04-34.74 181.92-104.17 248.66-68.89 67.28-153.93 100.89-255.11 100.89zm-3.23-755.28c-52.75 0-97.67-18.84-134.8-56.51-37.14-37.14-55.68-82.6-55.68-136.42 0-55.43 17.76-101.18 53.28-137.24 36.06-35.52 81.76-53.28 137.2-53.28 53.28 0 98.78 18.3 136.46 54.89 37.67 37.14 56.51 82.06 56.51 134.8 0 52.75-19.13 98.25-57.34 136.46-37.68 38.22-82.89 57.3-135.63 57.3"/><path d="m2437.7 1464.8v-131.8l16.46-16.84c17.27-17.01 7.38-48.82-16.46-52.96v-51.99l16.46-16.84c17.34-17 7.43-48.89-16.46-53v-51.95l16.46-16.84c17.02-16.73 7.75-48.02-15.63-52.82 2.03-15.55 9.29-30.93 22.92-46.129 16.14-17.981 40.48-35.071 71.09-49.5 9.03-4.262 18.73-8.172 28.79-11.95 21.79-38.082 50.2-69.89 83.22-93.191 80.72-56.59 180.17-56.59 260.88 0 33.12 23.289 61.61 55.129 83.46 93.281 9.95 3.75 19.57 7.649 28.51 11.86 30.61 14.429 54.95 31.519 71.09 49.5 15.27 17.031 22.96 34.199 23.75 51.669v57.8c-23.89 1.77-33.8 32.69-16.47 51.39l16.47 18.46v51.94c-23.89 1.77-33.8 32.69-16.47 51.39l16.47 18.46v51.99c-23.84 1.8-33.73 32.64-16.47 51.34l16.47 18.5v68.23c-19.69-22.57-660.79-17.25-674.54 0" fill="url(#linearGradient68)"/></g><path d="m3042.8 1420.6c-192.82-95.21-380.51-63.13-533.2-28.51l-9.27-29.71c191.24-41.9 395.02-45.45 542.47 58.22zm0-118.1c-192.82-95.21-380.51-63.13-533.2-28.51l-9.27-29.71c191.24-41.9 395.02-45.45 542.47 58.22zm0-118.1c-192.82-95.21-380.51-63.12-533.2-28.51l-9.27-29.71c191.24-41.89 395.02-45.45 542.47 58.22zm0-118.1c-192.82-95.211-380.51-63.12-533.2-28.51l-9.27-29.7c191.24-41.9 395.02-45.458 542.47 58.21" fill="#fff" fill-rule="evenodd"/><g fill="#1a1a1a"><path d="m5183 899.88-19.6 5.371-2.45-8.941 27.03-7.411 5.54 20.211-7.44 2.032-3.08-11.262"/><path d="m5195.3 930.87 4.19 0.301 2.61 9.527-30.05-3.578-2.51-9.18 23.9-18.832 2.52 9.18-3.44 2.441zm-7-0.449-1.54-5.633-7.13 5.031 8.67 0.602"/><path d="m5197.6 953.23-19.6 5.372-2.45-8.942 27.04-7.41 5.54 20.211-7.44 2.039-3.09-11.27"/><path d="m5210 984.22 4.19 0.312 2.61 9.52-30.05-3.582-2.52-9.18 23.91-18.828 2.51 9.18-3.43 2.437zm-7.01-0.438-1.54-5.633-7.13 5.024 8.67 0.609"/><path d="m5212.2 1006.6-19.6 5.38-2.45-8.95 27.04-7.408 5.54 20.208-7.44 2.04-3.09-11.27"/><path d="m5224.6 1037.6 4.19 0.31 2.61 9.52-30.05-3.58-2.52-9.18 23.91-18.83 2.52 9.18-3.44 2.44zm-7-0.44-1.55-5.63-7.12 5.02 8.67 0.61"/><path d="m5239 1075.2-27.03 7.41-2.22-8.1 13.88-3.8-16.81-6.89-2.05-7.48 27.03-7.41 2.23 8.14-13.8 3.78 16.72 6.87 2.05 7.48"/><path d="m5213 1086.5 27.04-7.41 3.22 11.73c2.5 9.14-1.2 16.5-9.42 18.75s-15.08-2.08-17.53-11zm9.39 7.05 0.81 2.93c0.95 3.47 4.2 5.03 8.21 3.93 3.98-1.09 5.95-3.87 5.06-7.11l-0.92-3.36-13.16 3.61"/><path d="m5218.5 905.02 6.29-1.719c0.18-1.461 0.17-2.871-0.09-3.801-0.96-3.512-4.37-5.352-8.11-4.328-3.67 1.008-5.67 4.289-4.72 7.769 0.61 2.239 2.45 4.547 4.68 5.887l-4.74 6.731c-3.34-2.188-6.22-6.34-7.37-10.539-2.42-8.84 1.64-16.84 9.63-19.02 8.03-2.199 15.58 2.359 17.9 10.852 1.06 3.859 0.96 9.226-0.22 12.789l-11.15 3.05-2.1-7.671"/><path d="m5240 927.66 2.76 10.102-10.25-2.91c-0.93 3.238-3.45 5.546-7.39 6.628-6.17 1.692-10.83-1.55-12.84-8.878l-3.58-13.071 27.03-7.41 2.46 8.938-7.03 1.929 0.93 3.352zm-15.62-2.82-6.45 1.769 1.13 4.129c0.53 1.934 2 2.731 4.01 2.184 2.08-0.57 2.97-2.012 2.44-3.942l-1.13-4.14"/><path d="m5244.7 959.53 4.19 0.297 2.61 9.531-30.05-3.578-2.51-9.179 23.91-18.832 2.51 9.179-3.44 2.43zm-7-0.453-1.54-5.629-7.13 5.02 8.67 0.609"/><path d="m5224.9 978.32 27.04-7.41 2.45 8.942-7.02 1.929 1.03 3.739c1.92 7.019-0.75 12.109-7.31 13.902-6.17 1.698-10.79-1.391-12.71-8.41zm9.24 7.078 0.9 3.293c0.53 1.93 1.99 2.731 4 2.18 2.08-0.57 2.97-2.019 2.44-3.949l-0.9-3.281-6.44 1.757"/><path d="m5266.4 1023.6-27.04 7.41-2.45-8.95 10.49-2.87-2.29-8.38-10.49 2.88-2.46-8.95 27.04-7.409 2.45 8.949-9.76 2.67 2.3 8.38 9.76-2.68 2.45 8.95"/><path d="m5269.9 1036.4-27.04 7.41-2.45-8.95 27.04-7.41 2.45 8.95"/><path d="m5247.3 1061.1c-2.33-8.49 1.76-16.24 9.71-18.42 8.07-2.21 15.61 2.19 17.89 10.48 1.14 4.17 0.28 9.34-2.18 13.24l-6.93-3.65c1.41-2.3 1.94-5.05 1.41-6.98-0.89-3.24-4.16-4.88-7.79-3.88-3.59 0.98-5.53 4.04-4.64 7.28 0.57 2.09 2.67 4.13 5.31 5.14l-4.72 6.85c-3.77-1.95-6.93-5.94-8.06-10.06"/><path d="m5254 1086.1c-1.92-7.02 0.23-12.5 5.62-13.98 9.5-2.6 11.02 12.04 14.53 11.07 0.97-0.26 1.16-1.23 0.8-2.54-0.75-2.74-3.95-7-7.03-9.15l5.8-5.15c3.72 2.83 6.74 7.65 8.03 12.35 1.67 6.1 0.46 12.11-5.56 13.76-9.8 2.69-11.51-11.9-14.91-10.97-0.81 0.22-0.94 0.96-0.66 1.97 0.64 2.35 3.45 6.1 5.71 8.43l-5.9 5.1c-2.76-2.52-5.25-6.61-6.43-10.89"/><path d="m5258.1 949.72c-1.16-4.239-0.66-8.61 0.94-13.199l7.35 1.55c-1.4 3.211-2.02 6.239-1.46 8.282 0.32 1.16 0.99 1.636 1.91 1.386 0.93-0.258 2.04-1.508 2.9-2.91l7.19-12.047 5.59-1.531 5.79 21.09-6.87 1.879-2.66-9.707-2.97 5.207c-2.19 3.832-4.58 6.89-7.71 7.75-4.39 1.203-8.48-2.199-10-7.75"/><path d="m5265 974.53c-2.2-8.031 1.49-13.761 10.36-16.191 8.88-2.442 15.02 0.609 17.21 8.629 2.18 7.953-1.54 13.73-10.41 16.172-8.87 2.429-14.99-0.661-17.16-8.61zm6.47-1.781c0.66 2.398 2.69 2.711 8.17 1.211s7.11-2.82 6.46-5.223c-0.67-2.429-2.74-2.726-8.22-1.226s-7.07 2.808-6.41 5.238"/><path d="m5299.8 994.51-27.04 7.408-3.74-13.65 7.06-1.942 1.29 4.711 19.98-5.48 2.45 8.953"/><path d="m5286 1026.8-5.97 1.64-6.12-22.33 10.64-2.92 2.16 7.87-3.79 1.03 1.27 4.63 17.74-14.43 2.59 9.44-18.52 15.07"/></g></g></g></svg>
