<svg width="192.6mm" height="107.38mm" version="1.1" viewBox="0 0 192.6 107.38" xmlns="http://www.w3.org/2000/svg">
 <g transform="translate(.50787 .48474)">
  <path d="m66.021-0.4707c-11.821 0.31336-23.595 2.6433-34.63 6.8974-9.4535 3.8347-18.134 9.9188-24.346 18.07-4.723 6.2356-7.6683 13.959-7.55 21.835 0.052593 7.3786 2.6937 14.608 6.9889 20.565 3.0661 4.3666 6.889 8.1845 11.176 11.353-4.1733 4.665-8.5765 9.2672-13.683 12.959-0.88732 0.60528-1.8338 1.1144-2.7875 1.6057 1.0256 3.7359 2.0488 7.4725 3.0723 11.209 7.8357 0.59514 15.659-0.77132 23.264-2.5381 8.7485-2.0942 17.296-5.1248 25.281-9.2845 0.7628-0.18146 1.5874 0.1764 2.3768 0.18768 6.8556 0.79932 13.797 0.90979 20.676 0.33972 2.1952-0.21314 4.3796-0.53478 6.541-0.97434-0.13286 0.86248-0.0085 1.7447-0.05859 2.6094 0.02833 0.39647 0.33998 0.78799 0.54492 1.0254-0.65501 0.28666-0.43362 1.1622-0.43221 1.7476 0.21177 2.0526 2.0968 3.3394 3.8298 4.1092 0.55899 0.21013 1.0182 0.53397 1.2903 1.0725 2.0434 2.9297 5.6191 5.0228 9.2647 4.4958 3.2807-0.39841 6.1267-2.5357 7.9927-5.1849 1.969-0.83089 3.8054-2.2902 4.6836-4.2656 0.1548-1.3496 0.0177-2.7102 0.0781-4.0645-0.81749 0.0154-0.13895-0.32574 0.0176-0.73438 0.20044-0.1975-0.0567-0.7891 0.21679-0.73047 8.0584 1.2967 16.281 1.5441 24.402 0.71289 1.4814-0.13789 2.9595-0.30195 4.4356-0.49219 14.718 7.7077 31.265 11.989 47.895 12.074 1.0524-0.19884 1.2777-1.353 1.4316-2.2383 0.85248-2.969 1.6229-5.9634 2.4394-8.9434-6.2947-3.8852-11.668-9.0716-16.508-14.625 8.5524-5.6744 15.203-14.511 17.361-24.633 1.5601-7.1301 0.88081-14.78-2.2226-21.413-4.0004-8.8802-11.232-15.97-19.438-21.04-11.078-6.8573-23.984-10.273-36.888-11.338-8.2303-0.71707-16.574-0.41817-24.678 1.2418-4.1306 0.79017-8.2138 1.8286-12.215 3.1261-7.3927-2.4422-15.111-3.7537-22.84-4.5527-2.3225-0.17645-4.6534-0.22553-6.9821-0.18367z" fill="#fff"/>
  <path d="m67.974 1.0975c-11.773-0.064778-25.237 2.5839-35.832 6.7298-13.04 5.1027-31.06 18.399-31.06 38.293 0 19.894 18.821 31.777 18.821 31.777s-0.24546 0.9555-6.86 7.5701c-6.6146 6.6146-9.9818 8.1608-9.9818 8.1608l2.4334 8.8827s8.8516 0.94378 24.802-3.3579c14.273-3.8494 22.344-8.7142 22.344-8.7142s5.4517 1.0661 15.473 1.0661c9.7771 0 15.433-1.6562 15.433-1.6562s1.2639 0.0471 1.2402 1.2873c-0.02363 1.2402-0.85008 1.1462-0.85008 1.1462v1.866s0.80313 0.2245 0.81494 1.2521c0.0118 1.0276-0.71107 1.2314-0.71107 1.2314v0.6227s0.35649 1.0985 1.6676 1.9017c1.3111 0.80321 2.4572 1.1343 2.4572 1.1343s2.5867 5.1025 7.6776 5.008c5.0909-0.0945 7.9494-4.9847 7.9494-4.9847s1.1336-0.23616 2.5037-1.3937c1.3702-1.1576 1.7012-1.9368 1.7012-1.9368v-2.4334s-0.96866-0.21254-1.016-1.2284 1.0868-1.3229 1.0868-1.3229v-2.0552s8.1736 1.512 16.017 1.512c7.843 0 14.883-1.0397 14.883-1.0397s9.1392 5.2411 22.436 8.7824c13.297 3.5413 24.789 3.3409 24.789 3.3409l2.4055-8.8868s-4.6772-2.8734-9.6216-7.6843c-4.9445-4.8108-7.4171-8.0181-7.4171-8.0181s18.955-10.307 18.955-32.041c0-21.734-24.667-44.796-66.896-44.796-14.131 0-27.787 4.8255-27.787 4.8255s-6.8037-2.6461-20.033-4.347c-2.4805-0.31892-5.1071-0.47804-7.8238-0.49299zm1.1539 8.5643c6.6075 0 14.558 1.572 14.558 1.572-13.091 6.9729-24.445 18.377-24.581 35.98-0.16144 20.98 24.054 34.244 24.054 34.244s-3.9757 1.5699-14.8 1.5699c-10.824 0-17.005-1.3364-17.005-1.3364s-4.7439 3.1462-15.101 6.8156c-9.3646 3.3178-18.575 4.4096-18.575 4.4096s4.1425-3.8752 8.5524-9.2206c4.4099-5.3454 5.8131-7.7509 5.8131-7.7509s-22.517-11.893-22.517-30.201c0-18.308 20.536-28.418 30.135-31.538 11.641-3.7828 18.862-4.5439 29.466-4.5439zm26.727 8.0181c15.868-5.9e-5 28.732 12.864 28.732 28.732 6e-5 15.868-12.864 28.732-28.732 28.732-15.868 6e-5 -28.732-12.864-28.732-28.732-6e-5 -15.868 12.864-28.732 28.732-28.732zm26.612-8.018c10.604 0 17.825 0.76076 29.466 4.5436 9.599 3.1191 30.135 13.23 30.135 31.538 0 18.308-22.517 30.201-22.517 30.201s1.4032 2.4054 5.8131 7.7508c4.4099 5.3454 8.5526 9.2208 8.5526 9.2208s-9.2106-1.0921-18.575-4.41c-10.357-3.6694-15.101-6.8154-15.101-6.8154s-6.1806 1.3364-17.005 1.3364c-10.824 0-14.8-1.5702-14.8-1.5702s24.216-13.264 24.054-34.244c-0.13545-17.603-11.49-29.007-24.581-35.979 0 0 7.9505-1.5719 14.558-1.5719z"/>
  <path d="m95.855 17.68c15.868-5.9e-5 28.732 12.864 28.732 28.732 6e-5 15.868-12.864 28.732-28.732 28.732-15.868 6e-5 -28.732-12.864-28.732-28.732-6e-5 -15.868 12.864-28.732 28.732-28.732z" fill="#ffc706"/>
  <g fill="#fffffe">
   <path d="m86.098 83.092-0.09449 1.3938s5.8114 1.252 11.009 0.85045c5.1972-0.4016 8.3982-3.0474 8.3982-3.0474s-4.2168 2.008-9.2014 2.0789c-4.9846 0.0709-10.111-1.2757-10.111-1.2757z"/>
   <path d="m86.04 87.406-0.09449 1.3938s5.8114 1.252 11.009 0.85045c5.1972-0.4016 8.3982-3.0474 8.3982-3.0474s-4.2168 2.008-9.2014 2.0789c-4.9846 0.0709-10.111-1.2757-10.111-1.2757z"/>
   <path d="m86.04 91.615-0.09449 1.3938s5.8114 1.252 11.009 0.85045c5.1972-0.4016 8.3982-3.0474 8.3982-3.0474s-4.2168 2.008-9.2014 2.0789c-4.9846 0.0709-10.111-1.2757-10.111-1.2757z"/>
   <path d="m86.074 95.791-0.09449 1.3938s5.8114 1.252 11.009 0.85045c5.1972-0.4016 8.3982-3.0474 8.3982-3.0474s-4.2168 2.008-9.2014 2.0789c-4.9846 0.0709-10.111-1.2757-10.111-1.2757z"/>
  </g>
  <path d="m102.68 59.941c0 3.8097-3.0884 6.8981-6.8981 6.8981s-6.8981-3.0884-6.8981-6.8981c-3e-6 -3.8097 3.0884-6.8981 6.8981-6.8981s6.8981 3.0884 6.8981 6.8981zm-19.956-20.244h9.9892s-2e-3 -1.5999 0.31017-2.2111c0.31247-0.61118 0.92584-1.7401 2.3625-1.7401 1.4367 0 2.8063 0.87758 2.8063 2.4144 0 1.5368-1.6606 2.7561-3.0736 3.3743-1.3623 0.59598-2.3553 0.85193-3.7919 2.5224-1.4366 1.6704-1.1526 7.8343-1.1526 7.8343s2.0379-1.1693 5.5458-1.1693 5.2786 1.2361 5.2786 1.2361-0.10022-2.0546 0.30068-2.7228c1.4223-2.3705 7.5838-2.1852 7.5838-10.908 0-8.0849-6.782-12.601-12.796-12.601-6.0136 0-13.363 3.7386-13.363 13.971z"/>
 </g>
</svg>
